<svg width="38" height="43" viewBox="0 0 38 43" fill="none" xmlns="http://www.w3.org/2000/svg">
<g filter="url(#filter0_d_344_3434)">
<path d="M4.17591 7.16641C4.08038 5.44681 5.44904 4 7.17129 4H30.8287C32.551 4 33.9196 5.44681 33.8241 7.16641L33.052 21.0643C33.0181 21.6736 32.7993 22.2581 32.4247 22.7397L21.3681 36.9554C20.167 38.4996 17.833 38.4996 16.6319 36.9554L5.57534 22.7397C5.20071 22.2581 4.98187 21.6736 4.94802 21.0643L4.17591 7.16641Z" fill="#428BF7"/>
<path d="M4.67514 7.13867C4.59553 5.70567 5.73608 4.5 7.17129 4.5H30.8287C32.2639 4.5 33.4045 5.70567 33.3249 7.13868L32.5528 21.0366C32.5245 21.5443 32.3422 22.0314 32.03 22.4328L20.9734 36.6484C19.9725 37.9353 18.0275 37.9352 17.0266 36.6484L5.97002 22.4328C5.65782 22.0314 5.47545 21.5443 5.44725 21.0366L4.67514 7.13867Z" stroke="white"/>
</g>
<defs>
<filter id="filter0_d_344_3434" x="0.170898" y="0" width="37.6582" height="42.1135" filterUnits="userSpaceOnUse" color-interpolation-filters="sRGB">
<feFlood flood-opacity="0" result="BackgroundImageFix"/>
<feColorMatrix in="SourceAlpha" type="matrix" values="0 0 0 0 0 0 0 0 0 0 0 0 0 0 0 0 0 0 127 0" result="hardAlpha"/>
<feOffset/>
<feGaussianBlur stdDeviation="2"/>
<feComposite in2="hardAlpha" operator="out"/>
<feColorMatrix type="matrix" values="0 0 0 0 0 0 0 0 0 0 0 0 0 0 0 0 0 0 0.25 0"/>
<feBlend mode="normal" in2="BackgroundImageFix" result="effect1_dropShadow_344_3434"/>
<feBlend mode="normal" in="SourceGraphic" in2="effect1_dropShadow_344_3434" result="shape"/>
</filter>
</defs>
</svg>
