<svg width="36" height="36" viewBox="0 0 36 36" fill="none" xmlns="http://www.w3.org/2000/svg">
<path d="M18 30C16.3431 30 15 28.6569 15 27C15 25.3431 16.3431 24 18 24C19.6569 24 21 25.3431 21 27C21 28.6569 19.6569 30 18 30ZM18 21C16.3431 21 15 19.6569 15 18C15 16.3431 16.3431 15 18 15C19.6569 15 21 16.3431 21 18C21 18.7956 20.6839 19.5587 20.1213 20.1213C19.5587 20.6839 18.7956 21 18 21ZM18 12C16.3431 12 15 10.6569 15 9C15 7.34315 16.3431 6 18 6C19.6569 6 21 7.34315 21 9C21 9.79565 20.6839 10.5587 20.1213 11.1213C19.5587 11.6839 18.7956 12 18 12Z" fill="#797979"/>
</svg>
